<svg xmlns="http://www.w3.org/2000/svg" xmlns:xlink="http://www.w3.org/1999/xlink" width="500" zoomAndPan="magnify" viewBox="0 0 375 374.999991" height="500" preserveAspectRatio="xMidYMid meet" version="1.0"><defs><clipPath id="2e51fee00f"><path d="M 162.609375 7 L 324.609375 7 L 324.609375 189 L 162.609375 189 Z M 162.609375 7 " clip-rule="nonzero"/></clipPath><clipPath id="cbabe3e8cb"><path d="M 118.617188 186 L 280.617188 186 L 280.617188 367 L 118.617188 367 Z M 118.617188 186 " clip-rule="nonzero"/></clipPath><clipPath id="4397574928"><path d="M 37.5 74.066406 L 199.5 74.066406 L 199.5 256 L 37.5 256 Z M 37.5 74.066406 " clip-rule="nonzero"/></clipPath></defs><g clip-path="url(#2e51fee00f)"><path fill="#47306d" d="M 314.894531 150.519531 L 284.113281 168.292969 L 253.332031 186.070312 C 247.964844 189.167969 239.253906 189.167969 233.890625 186.070312 L 203.109375 168.292969 L 172.324219 150.519531 C 166.960938 147.417969 162.605469 139.875 162.605469 133.679688 L 162.605469 62.574219 C 162.605469 56.378906 166.960938 48.832031 172.324219 45.734375 L 203.109375 27.957031 L 233.890625 10.183594 C 239.253906 7.082031 247.964844 7.082031 253.332031 10.183594 L 284.113281 27.957031 L 314.894531 45.734375 C 320.261719 48.832031 324.613281 56.378906 324.613281 62.574219 L 324.613281 133.679688 C 324.613281 139.875 320.261719 147.417969 314.894531 150.519531 Z M 314.894531 150.519531 " fill-opacity="1" fill-rule="nonzero"/></g><g clip-path="url(#cbabe3e8cb)"><path fill="#009688" d="M 270.902344 329.042969 L 240.121094 346.820312 L 209.335938 364.59375 C 203.972656 367.691406 195.261719 367.691406 189.898438 364.59375 L 159.117188 346.820312 L 128.332031 329.042969 C 122.96875 325.945312 118.613281 318.398438 118.613281 312.203125 L 118.613281 241.097656 C 118.613281 234.902344 122.96875 227.355469 128.332031 224.257812 L 159.117188 206.484375 L 189.898438 188.707031 C 195.261719 185.609375 203.972656 185.609375 209.335938 188.707031 L 240.121094 206.484375 L 270.902344 224.257812 C 276.265625 227.355469 280.621094 234.902344 280.621094 241.097656 L 280.621094 312.203125 C 280.621094 318.398438 276.265625 325.945312 270.902344 329.042969 Z M 270.902344 329.042969 " fill-opacity="1" fill-rule="nonzero"/></g><g clip-path="url(#4397574928)"><path fill="#eab94a" d="M 189.785156 217.582031 L 159.003906 235.359375 L 128.21875 253.132812 C 122.855469 256.234375 114.144531 256.234375 108.78125 253.132812 L 77.996094 235.359375 L 47.214844 217.582031 C 41.851562 214.484375 37.496094 206.9375 37.496094 200.742188 L 37.496094 129.636719 C 37.496094 123.441406 41.851562 115.894531 47.214844 112.796875 L 77.996094 95.023438 L 108.78125 77.246094 C 114.144531 74.148438 122.855469 74.148438 128.21875 77.246094 L 159.003906 95.023438 L 189.785156 112.796875 C 195.148438 115.894531 199.503906 123.441406 199.503906 129.636719 L 199.503906 200.742188 C 199.503906 206.9375 195.148438 214.484375 189.785156 217.582031 Z M 189.785156 217.582031 " fill-opacity="1" fill-rule="nonzero"/></g></svg>